<?xml version="1.0" encoding="utf-8"?>
<!-- Generator: Adobe Illustrator 16.0.3, SVG Export Plug-In . SVG Version: 6.00 Build 0)  -->
<!DOCTYPE svg PUBLIC "-//W3C//DTD SVG 1.1//EN" "http://www.w3.org/Graphics/SVG/1.1/DTD/svg11.dtd">
<svg version="1.1" id="레이어_1" xmlns="http://www.w3.org/2000/svg" xmlns:xlink="http://www.w3.org/1999/xlink" x="0px"
	 y="0px" width="696px" height="194px" viewBox="157.5 144.5 696 194" enable-background="new 157.5 144.5 696 194"
	 xml:space="preserve">
<g>
	<g>
		<g>
			<polygon fill="#F29600" points="402.297,279.28 402.297,253.379 391.943,253.379 391.943,279.28 391.943,289.635 
				402.297,289.635 428.183,289.635 428.183,279.28 			"/>
			<polygon fill="#665F58" points="623.328,241.549 632.637,236.998 621.764,214.797 629.335,214.797 629.335,204.449 
				593.088,204.449 593.088,214.797 600.653,214.797 589.793,236.998 599.089,241.549 611.219,216.792 			"/>
			<polygon fill="#665F58" points="652.385,262.325 652.385,251.965 616.141,251.965 616.141,262.325 623.712,262.325 
				612.847,284.516 622.146,289.078 634.27,264.312 646.381,289.078 655.685,284.516 644.824,262.325 			"/>
			<rect x="522.669" y="230.501" fill="#665F58" width="36.253" height="10.355"/>
			<polygon fill="#665F58" points="653.718,204.449 643.366,204.449 643.366,240.683 653.718,240.683 653.718,227.752 
				669.252,227.752 669.252,217.39 653.718,217.39 			"/>
			<g>
				<polygon fill="#F29600" points="369.49,218.425 378.796,213.876 367.933,191.674 375.494,191.674 375.494,181.317 
					339.252,181.317 339.252,191.674 346.815,191.674 335.955,213.876 345.255,218.425 357.378,193.659 				"/>
				<polygon fill="#F29600" points="339.252,230.501 339.252,240.858 375.494,240.858 375.494,230.501 362.553,230.501 
					362.553,214.975 352.193,214.975 352.193,230.501 				"/>
			</g>
			<polygon fill="#665F58" points="737.417,204.449 727.058,204.449 727.058,240.683 737.417,240.683 737.417,227.752 
				752.948,227.752 752.948,217.39 737.417,217.39 			"/>
			<polygon fill="#665F58" points="836.053,217.39 820.518,217.39 820.518,204.449 810.17,204.449 810.17,240.683 820.518,240.683 
				820.518,227.752 836.053,227.752 			"/>
			<path fill="#665F58" d="M697.8,204.449c-10.013,0-18.126,8.112-18.126,18.117c0,10.002,8.113,18.116,18.126,18.116
				c10.002,0,18.116-8.114,18.116-18.116C715.916,212.562,707.802,204.449,697.8,204.449z M697.8,230.334
				c-4.29,0-7.767-3.482-7.767-7.769c0-4.293,3.477-7.77,7.767-7.77s7.766,3.477,7.766,7.77
				C705.564,226.852,702.09,230.334,697.8,230.334z"/>
			<path fill="#665F58" d="M541.677,183.212c-9.999,0-18.109,8.117-18.109,18.125c0,10.013,8.11,18.121,18.109,18.121
				c10.021,0,18.143-8.108,18.143-18.121C559.818,191.33,551.697,183.212,541.677,183.212z M541.677,209.104
				c-4.271,0-7.751-3.48-7.751-7.767c0-4.293,3.479-7.772,7.751-7.772c4.305,0,7.782,3.479,7.782,7.772
				C549.459,205.623,545.98,209.104,541.677,209.104z"/>
			<rect x="391.943" y="230.501" fill="#F29600" width="36.239" height="10.355"/>
			<path fill="#F29600" d="M410.067,183.212c-10.005,0-18.124,8.117-18.124,18.125c0,10.013,8.119,18.121,18.124,18.121
				c10.004,0,18.116-8.108,18.116-18.121C428.183,191.33,420.071,183.212,410.067,183.212z M410.067,209.104
				c-4.291,0-7.77-3.48-7.77-7.767c0-4.293,3.479-7.772,7.77-7.772c4.288,0,7.767,3.479,7.767,7.772
				C417.834,205.623,414.354,209.104,410.067,209.104z"/>
			<polygon fill="#665F58" points="763.18,204.185 763.18,214.54 789.081,214.54 789.081,230.068 763.18,230.068 763.18,266.315 
				799.427,266.315 799.427,255.972 773.537,255.972 773.537,240.43 799.427,240.43 799.427,204.185 			"/>
			<polygon fill="#665F58" points="523.195,251.298 523.195,261.667 549.073,261.667 549.073,272.011 523.195,272.011 
				523.195,303.079 559.433,303.079 559.433,292.723 533.55,292.723 533.55,282.371 559.433,282.371 559.433,251.298 			"/>
			<rect x="496.463" y="204.616" fill="#F29600" width="10.346" height="36.241"/>
			<path fill="#F29600" d="M449.162,222.74c0,10.011,8.122,18.118,18.126,18.118s18.116-8.107,18.116-18.118
				s-8.111-18.123-18.116-18.123C457.284,204.616,449.162,212.729,449.162,222.74z M475.05,222.74c0,4.29-3.474,7.763-7.762,7.763
				c-4.291,0-7.767-3.473-7.767-7.763c0-4.282,3.477-7.765,7.767-7.765C471.576,214.975,475.05,218.457,475.05,222.74z"/>
			<polygon fill="#F29600" points="470.569,251.298 470.569,261.667 496.463,261.667 496.463,272.011 470.569,272.011 
				470.569,303.079 506.809,303.079 506.809,292.723 480.918,292.723 480.918,282.371 506.809,282.371 506.809,251.298 			"/>
			<polygon fill="#ED792F" points="642.946,180.656 637.334,171.944 616.031,185.698 610.129,163.435 600.121,166.082 
				609.401,201.121 			"/>
			<g>
				<rect x="339.252" y="274.52" fill="#F29600" width="36.242" height="10.363"/>
				<path fill="#F29600" d="M357.378,287.285c-10.015,0-18.126,8.12-18.126,18.137c0,10.004,8.111,18.114,18.126,18.114
					c10.005,0,18.116-8.11,18.116-18.114C375.494,295.406,367.383,287.285,357.378,287.285z M357.378,313.178
					c-4.288,0-7.767-3.467-7.767-7.756c0-4.3,3.479-7.769,7.767-7.769c4.28,0,7.759,3.469,7.759,7.769
					C365.137,309.711,361.658,313.178,357.378,313.178z"/>
				<polygon fill="#665F58" points="373.817,267.108 368.196,258.413 359.058,264.26 356.131,253.379 346.116,256.042 
					352.475,279.612 				"/>
			</g>
			<rect x="762.191" y="180.002" fill="#DB062B" width="10.355" height="12.941"/>
			<rect x="778.069" y="180.002" fill="#F7C900" width="10.355" height="12.941"/>
			<rect x="793.945" y="180.002" fill="#8FC323" width="10.358" height="12.941"/>
			<rect x="809.826" y="180.002" fill="#0095CE" width="10.359" height="12.941"/>
			<rect x="825.706" y="180.002" fill="#595757" width="10.347" height="12.941"/>
		</g>
		<g>
			<g>
				<polygon fill="#F29E6B" points="268.87,294.295 222.925,271.68 218.746,274.095 214.514,271.68 168.692,294.295 
					173.372,296.828 173.372,296.941 168.692,298.741 218.746,323.514 214.514,317.389 218.746,314.863 181.62,296.736 
					218.746,277.941 255.906,296.771 218.746,314.863 223.089,317.389 218.746,323.514 268.87,298.741 264.224,296.941 
					264.06,296.861 264.06,296.828 				"/>
				<path fill="#F8C170" d="M177.834,242.232v-45.221l36.709,18.043l4.202-2.175l4.418,2.175l41.13-20.212l4.575-6.623h-8.732
					l-41.392,20.575l-37.067-18.521l37.067-18.519v-4.329v-3.969l-50.053,24.763v57.853l4.806-1.805L177.834,242.232z
					 M177.589,188.219v0.016l-0.008-0.016H177.589z"/>
			</g>
			<polygon fill="#918271" points="218.746,212.879 214.268,215.054 214.268,264.714 218.746,270.843 			"/>
			<polygon fill="#665F58" points="218.746,212.879 223.216,215.054 223.216,264.714 218.746,270.843 			"/>
			<g>
				<polygon fill="#918271" points="218.746,167.667 214.268,165.739 214.268,219.377 218.746,225.502 				"/>
				<polygon fill="#665F58" points="218.746,171.881 223.216,174.042 223.216,219.377 218.746,225.502 				"/>
				<polygon fill="#918271" points="259.846,298.497 264.176,301.027 264.176,247.513 259.846,245.231 				"/>
				<polygon fill="#918271" points="168.692,241.985 173.499,244.267 173.499,301.15 168.692,298.741 				"/>
				<polygon fill="#665F58" points="177.834,298.627 173.499,301.15 173.499,247.513 177.834,245.231 				"/>
				<polygon fill="#918271" points="218.79,267.113 214.268,267.718 214.268,321.109 218.746,323.514 				"/>
				<polygon fill="#665F58" points="218.79,267.113 223.216,267.718 223.216,321.234 218.746,323.514 				"/>
				<polygon fill="#665F58" points="268.87,240.899 264.176,247.513 264.176,301.027 268.87,298.741 				"/>
				<polygon fill="#665F58" points="173.372,248.236 218.746,225.262 218.746,221.42 173.372,244.156 				"/>
				<polygon fill="#AB9F8F" points="214.514,219.011 218.746,221.42 173.372,244.267 168.692,241.985 				"/>
				<polygon fill="#918271" points="264.06,248.236 218.746,225.262 218.746,221.42 264.06,244.156 				"/>
				<polygon fill="#AB9F8F" points="222.925,219.011 218.746,221.42 264.06,244.156 268.87,241.624 				"/>
				<polygon fill="#665F58" points="268.87,246.072 264.224,244.267 218.79,266.631 218.79,270.843 				"/>
				<polygon fill="#AB9F8F" points="260.011,242.109 264.224,244.267 218.79,267.113 218.79,262.187 				"/>
				<polygon fill="#918271" points="168.692,246.072 173.372,244.267 218.79,266.756 218.79,270.843 				"/>
				<polygon fill="#AB9F8F" points="177.589,242.109 173.372,244.267 218.79,267.113 218.79,262.187 				"/>
				<polygon fill="#918271" points="259.846,242.232 264.176,244.267 264.176,194.842 259.846,192.556 				"/>
				<polygon fill="#918271" points="218.746,167.425 218.746,171.881 264.176,194.842 264.176,190.159 				"/>
				<polygon fill="#AB9F8F" points="218.746,163.457 268.87,188.219 264.176,190.159 214.268,165.739 				"/>
				<polygon fill="#665F58" points="268.87,188.219 264.176,190.159 264.176,244.267 268.87,246.072 				"/>
			</g>
		</g>
	</g>
	<g>
		<path fill="#DB062B" d="M753.608,311.264c0,0.307-0.063,0.518-0.188,0.631c-0.124,0.115-0.33,0.174-0.616,0.174h-6.37v5.164
			h10.214v2.754h-23.727v-2.754h10.156v-5.164h-6.369c-0.307,0-0.512-0.059-0.617-0.174c-0.104-0.113-0.157-0.324-0.157-0.631
			v-13.369h3.271v4.189h11.16v-4.189h3.241L753.608,311.264L753.608,311.264z M750.366,309.313v-4.504h-11.16v4.504H750.366z"/>
		<path fill="#DB062B" d="M781.667,319.67H757.94v-2.754h23.727V319.67z M761.729,298.323h17.156v2.754h-14.661v7.548h14.861v2.725
			h-17.386c-0.308,0-0.514-0.057-0.617-0.172c-0.105-0.115-0.158-0.324-0.158-0.631v-11.418c0-0.287,0.059-0.492,0.173-0.617
			S761.421,298.323,761.729,298.323z"/>
		<path fill="#DB062B" d="M793.402,298.842c0.287,0,0.491,0.063,0.616,0.186c0.124,0.125,0.188,0.33,0.188,0.617
			c-0.115,3.844-0.853,7.287-2.21,10.328c-1.358,3.041-3.424,5.596-6.197,7.66l-2.84-1.922c2.582-1.722,4.528-3.763,5.839-6.125
			c1.31-2.361,1.993-5.045,2.051-8.048h-6.513v-2.696H793.402L793.402,298.842z M796.816,321.62v-12.364h-3.5v-2.898h3.5v-8.778
			h3.155v24.042L796.816,321.62L796.816,321.62z M801.924,322.825v-25.678h3.127v25.678H801.924z"/>
		<path fill="#DB062B" d="M815.752,310.375c-1.033,0-1.971-0.162-2.813-0.488c-0.843-0.324-1.568-0.773-2.181-1.349
			c-0.594-0.573-1.053-1.258-1.377-2.053c-0.326-0.793-0.487-1.658-0.487-2.596c0-0.918,0.161-1.771,0.487-2.553
			c0.324-0.785,0.783-1.464,1.377-2.037c0.611-0.574,1.338-1.029,2.181-1.363c0.842-0.334,1.778-0.502,2.813-0.502
			c1.014,0,1.94,0.168,2.782,0.502s1.567,0.789,2.181,1.363c0.594,0.573,1.057,1.252,1.393,2.037
			c0.335,0.782,0.502,1.635,0.502,2.553c0,0.938-0.167,1.803-0.502,2.596c-0.336,0.795-0.799,1.479-1.393,2.053
			c-0.611,0.574-1.339,1.023-2.181,1.349C817.692,310.213,816.766,310.375,815.752,310.375z M815.752,300.189
			c-1.146,0-2.033,0.354-2.654,1.063c-0.621,0.707-0.933,1.596-0.933,2.668c0,1.051,0.312,1.936,0.933,2.653
			c0.621,0.717,1.508,1.074,2.654,1.074s2.032-0.357,2.653-1.074c0.621-0.719,0.933-1.604,0.933-2.653
			c0-1.072-0.312-1.961-0.933-2.668C817.784,300.543,816.898,300.189,815.752,300.189z M813.227,312.87h15.694
			c0.286,0,0.492,0.063,0.616,0.187c0.124,0.125,0.188,0.33,0.188,0.617v8.063c0,0.305-0.063,0.517-0.188,0.631
			c-0.124,0.115-0.33,0.172-0.616,0.172h-15.694c-0.306,0-0.516-0.057-0.631-0.172c-0.114-0.114-0.172-0.325-0.172-0.631v-8.063
			c0-0.287,0.058-0.492,0.172-0.617C812.711,312.934,812.921,312.87,813.227,312.87z M826.511,319.9v-4.361h-10.874v4.361H826.511z
			 M829.753,297.148v14.633h-3.214v-14.633H829.753z"/>
	</g>
</g>
</svg>
