<?xml version="1.0" encoding="utf-8"?>
<!-- Generator: Adobe Illustrator 16.0.3, SVG Export Plug-In . SVG Version: 6.00 Build 0)  -->
<!DOCTYPE svg PUBLIC "-//W3C//DTD SVG 1.1//EN" "http://www.w3.org/Graphics/SVG/1.1/DTD/svg11.dtd">
<svg version="1.1" id="레이어_1" xmlns="http://www.w3.org/2000/svg" xmlns:xlink="http://www.w3.org/1999/xlink" x="0px"
	 y="0px" width="524px" height="312px" viewBox="217.5 121.5 524 312" enable-background="new 217.5 121.5 524 312"
	 xml:space="preserve">
<g>
	<g>
		<g>
			<polygon fill="#FFFFFF" points="294.297,374.507 294.297,348.606 283.943,348.606 283.943,374.507 283.943,384.861 
				294.297,384.861 320.183,384.861 320.183,374.507 			"/>
			<polygon fill="#FFFFFF" points="515.328,336.776 524.637,332.225 513.764,310.024 521.335,310.024 521.335,299.676 
				485.088,299.676 485.088,310.024 492.653,310.024 481.793,332.225 491.089,336.776 503.219,312.02 			"/>
			<polygon fill="#FFFFFF" points="544.385,357.552 544.385,347.192 508.141,347.192 508.141,357.552 515.712,357.552 
				504.847,379.741 514.146,384.306 526.27,359.538 538.381,384.306 547.685,379.741 536.824,357.552 			"/>
			<rect x="414.669" y="325.729" fill="#FFFFFF" width="36.252" height="10.356"/>
			<polygon fill="#FFFFFF" points="545.718,299.676 535.366,299.676 535.366,335.909 545.718,335.909 545.718,322.979 
				561.252,322.979 561.252,312.616 545.718,312.616 			"/>
			<g>
				<polygon fill="#FFFFFF" points="261.49,313.652 270.796,309.104 259.933,286.901 267.494,286.901 267.494,276.544 
					231.252,276.544 231.252,286.901 238.815,286.901 227.955,309.104 237.255,313.652 249.378,288.886 				"/>
				<polygon fill="#FFFFFF" points="231.252,325.729 231.252,336.085 267.494,336.085 267.494,325.729 254.553,325.729 
					254.553,310.201 244.193,310.201 244.193,325.729 				"/>
			</g>
			<polygon fill="#FFFFFF" points="629.417,299.676 619.058,299.676 619.058,335.909 629.417,335.909 629.417,322.979 
				644.948,322.979 644.948,312.616 629.417,312.616 			"/>
			<polygon fill="#FFFFFF" points="728.053,312.616 712.517,312.616 712.517,299.676 702.17,299.676 702.17,335.909 
				712.517,335.909 712.517,322.979 728.053,322.979 			"/>
			<path fill="#FFFFFF" d="M589.8,299.676c-10.013,0-18.126,8.112-18.126,18.118c0,10.002,8.113,18.115,18.126,18.115
				c10.002,0,18.116-8.113,18.116-18.115C607.916,307.788,599.802,299.676,589.8,299.676z M589.8,325.562
				c-4.29,0-7.767-3.482-7.767-7.768c0-4.293,3.477-7.771,7.767-7.771s7.766,3.478,7.766,7.771
				C597.564,322.078,594.09,325.562,589.8,325.562z"/>
			<path fill="#FFFFFF" d="M433.677,278.439c-10,0-18.111,8.117-18.111,18.125c0,10.013,8.111,18.121,18.111,18.121
				c10.021,0,18.143-8.108,18.143-18.121C451.818,286.557,443.697,278.439,433.677,278.439z M433.677,304.33
				c-4.271,0-7.751-3.48-7.751-7.767c0-4.293,3.479-7.771,7.751-7.771c4.304,0,7.782,3.479,7.782,7.771
				C441.459,300.85,437.98,304.33,433.677,304.33z"/>
			<rect x="283.943" y="325.729" fill="#FFFFFF" width="36.239" height="10.356"/>
			<path fill="#FFFFFF" d="M302.067,278.439c-10.005,0-18.124,8.117-18.124,18.125c0,10.013,8.119,18.121,18.124,18.121
				c10.004,0,18.116-8.108,18.116-18.121C320.183,286.557,312.071,278.439,302.067,278.439z M302.067,304.33
				c-4.291,0-7.77-3.48-7.77-7.767c0-4.293,3.479-7.771,7.77-7.771c4.288,0,7.767,3.479,7.767,7.771
				C309.834,300.85,306.354,304.33,302.067,304.33z"/>
			<polygon fill="#FFFFFF" points="655.18,299.411 655.18,309.767 681.081,309.767 681.081,325.295 655.18,325.295 655.18,361.541 
				691.427,361.541 691.427,351.198 665.537,351.198 665.537,335.656 691.427,335.656 691.427,299.411 			"/>
			<polygon fill="#FFFFFF" points="415.196,346.525 415.196,356.895 441.073,356.895 441.073,367.238 415.196,367.238 
				415.196,398.307 451.433,398.307 451.433,387.948 425.55,387.948 425.55,377.598 451.433,377.598 451.433,346.525 			"/>
			<rect x="388.463" y="299.843" fill="#FFFFFF" width="10.346" height="36.242"/>
			<path fill="#FFFFFF" d="M341.162,317.967c0,10.01,8.122,18.118,18.126,18.118s18.116-8.108,18.116-18.118
				c0-10.012-8.111-18.124-18.116-18.124C349.284,299.843,341.162,307.955,341.162,317.967z M367.05,317.967
				c0,4.29-3.474,7.762-7.762,7.762c-4.291,0-7.767-3.472-7.767-7.762c0-4.283,3.477-7.766,7.767-7.766
				C363.576,310.201,367.05,313.684,367.05,317.967z"/>
			<polygon fill="#FFFFFF" points="362.569,346.525 362.569,356.895 388.463,356.895 388.463,367.238 362.569,367.238 
				362.569,398.307 398.809,398.307 398.809,387.948 372.918,387.948 372.918,377.598 398.809,377.598 398.809,346.525 			"/>
			<polygon fill="#FFFFFF" points="534.946,275.883 529.334,267.171 508.031,280.925 502.129,258.662 492.121,261.309 
				501.401,296.348 			"/>
			<g>
				<rect x="231.252" y="369.746" fill="#FFFFFF" width="36.242" height="10.362"/>
				<path fill="#FFFFFF" d="M249.378,382.512c-10.015,0-18.126,8.121-18.126,18.137c0,10.005,8.111,18.115,18.126,18.115
					c10.005,0,18.116-8.11,18.116-18.115C267.494,390.633,259.383,382.512,249.378,382.512z M249.378,408.404
					c-4.288,0-7.767-3.466-7.767-7.756c0-4.299,3.479-7.768,7.767-7.768c4.28,0,7.759,3.469,7.759,7.768
					C257.137,404.938,253.658,408.404,249.378,408.404z"/>
				<polygon fill="#FFFFFF" points="265.817,362.335 260.196,353.64 251.058,359.487 248.131,348.606 238.116,351.27 
					244.475,374.839 				"/>
			</g>
			<rect x="654.191" y="275.23" fill="#FFFFFF" width="10.355" height="12.942"/>
			<rect x="670.069" y="275.23" fill="#FFFFFF" width="10.355" height="12.942"/>
			<rect x="685.945" y="275.23" fill="#FFFFFF" width="10.358" height="12.942"/>
			<rect x="701.826" y="275.23" fill="#FFFFFF" width="10.358" height="12.942"/>
			<rect x="717.706" y="275.23" fill="#FFFFFF" width="10.347" height="12.942"/>
		</g>
		<g>
			<g>
				<polygon fill="#FFFFFF" points="508.308,223.956 476.142,208.124 473.215,209.813 470.252,208.124 438.173,223.956 
					441.449,225.729 441.449,225.808 438.173,227.069 473.215,244.413 470.252,240.123 473.215,238.355 447.223,225.665 
					473.215,212.505 499.23,225.689 473.215,238.355 476.256,240.123 473.215,244.413 508.308,227.069 505.055,225.808 
					504.94,225.752 504.94,225.729 				"/>
				<path fill="#FFFFFF" d="M444.573,187.505v-31.659l25.7,12.631l2.941-1.521l3.093,1.521l28.796-14.149l3.203-4.637h-6.112
					l-28.979,14.404l-25.951-12.967l25.951-12.965v-3.031v-2.779l-35.042,17.337v40.502l3.365-1.264L444.573,187.505z
					 M444.401,149.692v0.011l-0.005-0.011H444.401z"/>
			</g>
			<polygon fill="#FFFFFF" points="473.215,166.956 470.081,168.478 470.081,203.247 473.215,207.537 			"/>
			<polygon fill="#FFFFFF" points="473.215,166.956 476.345,168.478 476.345,203.247 473.215,207.537 			"/>
			<g>
				<polygon fill="#FFFFFF" points="473.215,135.303 470.081,133.952 470.081,171.505 473.215,175.793 				"/>
				<polygon fill="#FFFFFF" points="473.215,138.253 476.345,139.766 476.345,171.505 473.215,175.793 				"/>
				<polygon fill="#FFFFFF" points="501.99,226.898 505.021,228.669 505.021,191.204 501.99,189.605 				"/>
				<polygon fill="#FFFFFF" points="438.173,187.333 441.538,188.931 441.538,228.755 438.173,227.069 				"/>
				<polygon fill="#FFFFFF" points="444.573,226.988 441.538,228.755 441.538,191.204 444.573,189.605 				"/>
				<polygon fill="#FFFFFF" points="473.247,204.925 470.081,205.349 470.081,242.728 473.215,244.413 				"/>
				<polygon fill="#FFFFFF" points="473.247,204.925 476.345,205.349 476.345,242.815 473.215,244.413 				"/>
				<polygon fill="#FFFFFF" points="508.308,186.572 505.021,191.204 505.021,228.669 508.308,227.069 				"/>
				<polygon fill="#FFFFFF" points="441.449,191.709 473.215,175.625 473.215,172.935 441.449,188.853 				"/>
				<polygon fill="#FFFFFF" points="470.252,171.249 473.215,172.935 441.449,188.931 438.173,187.333 				"/>
				<polygon fill="#FFFFFF" points="504.94,191.709 473.215,175.625 473.215,172.935 504.94,188.853 				"/>
				<polygon fill="#FFFFFF" points="476.142,171.249 473.215,172.935 504.94,188.853 508.308,187.08 				"/>
				<polygon fill="#FFFFFF" points="508.308,190.194 505.055,188.931 473.247,204.588 473.247,207.537 				"/>
				<polygon fill="#FFFFFF" points="502.105,187.419 505.055,188.931 473.247,204.925 473.247,201.477 				"/>
				<polygon fill="#FFFFFF" points="438.173,190.194 441.449,188.931 473.247,204.676 473.247,207.537 				"/>
				<polygon fill="#FFFFFF" points="444.401,187.419 441.449,188.931 473.247,204.925 473.247,201.477 				"/>
				<polygon fill="#FFFFFF" points="501.99,187.505 505.021,188.931 505.021,154.328 501.99,152.728 				"/>
				<polygon fill="#FFFFFF" points="473.215,135.133 473.215,138.253 505.021,154.328 505.021,151.049 				"/>
				<polygon fill="#FFFFFF" points="473.215,132.354 508.308,149.692 505.021,151.049 470.081,133.952 				"/>
				<polygon fill="#FFFFFF" points="508.308,149.692 505.021,151.049 505.021,188.931 508.308,190.194 				"/>
			</g>
		</g>
	</g>
	<g>
		<path fill="#FFFFFF" d="M645.608,409.931c0,0.307-0.063,0.517-0.188,0.631c-0.124,0.115-0.33,0.173-0.616,0.173h-6.37v5.164
			h10.214v2.754h-23.727v-2.754h10.156v-5.164h-6.369c-0.307,0-0.512-0.058-0.617-0.173c-0.104-0.114-0.157-0.324-0.157-0.631
			v-13.37h3.271v4.189h11.16v-4.189h3.241L645.608,409.931L645.608,409.931z M642.366,407.979v-4.504h-11.16v4.504H642.366z"/>
		<path fill="#FFFFFF" d="M673.667,418.337H649.94v-2.755h23.727V418.337z M653.729,396.99h17.156v2.754h-14.661v7.546h14.861v2.727
			h-17.386c-0.308,0-0.514-0.058-0.617-0.172c-0.105-0.115-0.158-0.325-0.158-0.631v-11.419c0-0.287,0.059-0.492,0.173-0.617
			C653.211,397.054,653.421,396.99,653.729,396.99z"/>
		<path fill="#FFFFFF" d="M685.402,397.508c0.287,0,0.491,0.063,0.616,0.187c0.124,0.124,0.188,0.33,0.188,0.617
			c-0.115,3.844-0.853,7.287-2.21,10.328c-1.358,3.041-3.424,5.595-6.197,7.66l-2.84-1.922c2.582-1.723,4.528-3.764,5.839-6.126
			c1.31-2.361,1.993-5.045,2.051-8.048h-6.513v-2.696H685.402L685.402,397.508z M688.816,420.287v-12.364h-3.5v-2.898h3.5v-8.779
			h3.155v24.043L688.816,420.287L688.816,420.287z M693.924,421.492v-25.678h3.127v25.678H693.924z"/>
		<path fill="#FFFFFF" d="M707.752,409.04c-1.033,0-1.971-0.161-2.812-0.486c-0.844-0.325-1.569-0.774-2.182-1.35
			c-0.594-0.573-1.053-1.258-1.377-2.052c-0.326-0.793-0.488-1.659-0.488-2.596c0-0.919,0.162-1.771,0.488-2.554
			c0.324-0.784,0.783-1.464,1.377-2.037c0.611-0.574,1.338-1.028,2.182-1.363c0.841-0.334,1.777-0.502,2.812-0.502
			c1.014,0,1.94,0.168,2.782,0.502c0.842,0.335,1.567,0.789,2.181,1.363c0.593,0.573,1.058,1.253,1.393,2.037
			c0.335,0.783,0.502,1.635,0.502,2.554c0,0.937-0.167,1.803-0.502,2.596c-0.335,0.794-0.8,1.479-1.393,2.052
			c-0.611,0.574-1.339,1.023-2.181,1.35S708.766,409.04,707.752,409.04z M707.752,398.856c-1.146,0-2.033,0.354-2.654,1.063
			c-0.622,0.708-0.933,1.597-0.933,2.668c0,1.052,0.311,1.937,0.933,2.653c0.621,0.717,1.508,1.075,2.654,1.075
			c1.147,0,2.032-0.358,2.653-1.075c0.621-0.718,0.933-1.603,0.933-2.653c0-1.071-0.312-1.96-0.933-2.668
			S708.899,398.856,707.752,398.856z M705.227,411.536h15.694c0.286,0,0.492,0.063,0.616,0.188c0.124,0.125,0.187,0.33,0.187,0.617
			v8.062c0,0.307-0.063,0.518-0.187,0.632s-0.33,0.172-0.616,0.172h-15.694c-0.306,0-0.516-0.058-0.631-0.172
			c-0.114-0.114-0.172-0.325-0.172-0.632v-8.062c0-0.287,0.058-0.492,0.172-0.617C704.711,411.6,704.921,411.536,705.227,411.536z
			 M718.511,418.566v-4.36h-10.874v4.36H718.511z M721.753,395.815v14.632h-3.214v-14.632H721.753z"/>
	</g>
</g>
</svg>
