<?xml version="1.0" encoding="utf-8"?>
<!-- Generator: Adobe Illustrator 16.0.3, SVG Export Plug-In . SVG Version: 6.00 Build 0)  -->
<!DOCTYPE svg PUBLIC "-//W3C//DTD SVG 1.1//EN" "http://www.w3.org/Graphics/SVG/1.1/DTD/svg11.dtd">
<svg version="1.1" id="레이어_1" xmlns="http://www.w3.org/2000/svg" xmlns:xlink="http://www.w3.org/1999/xlink" x="0px"
	 y="0px" width="699.999px" height="176px" viewBox="0 0 699.999 176" enable-background="new 0 0 699.999 176"
	 xml:space="preserve">
<g>
	<g>
		<g>
			<polygon fill="#FFFFFF" points="244.63,121.613 244.63,95.713 234.276,95.713 234.276,121.613 234.276,131.968 244.63,131.968 
				270.516,131.968 270.516,121.613 			"/>
			<polygon fill="#FFFFFF" points="465.661,83.883 474.97,79.331 464.097,57.131 471.668,57.131 471.668,46.782 435.421,46.782 
				435.421,57.131 442.986,57.131 432.126,79.331 441.422,83.883 453.552,59.126 			"/>
			<polygon fill="#FFFFFF" points="494.718,104.658 494.718,94.299 458.474,94.299 458.474,104.658 466.045,104.658 455.18,126.849 
				464.479,131.412 476.603,106.646 488.714,131.412 498.018,126.849 487.157,104.658 			"/>
			<rect x="365.002" y="72.835" fill="#FFFFFF" width="36.253" height="10.356"/>
			<polygon fill="#FFFFFF" points="496.051,46.782 485.699,46.782 485.699,83.017 496.051,83.017 496.051,70.086 511.585,70.086 
				511.585,59.724 496.051,59.724 			"/>
			<g>
				<polygon fill="#FFFFFF" points="211.823,60.759 221.129,56.21 210.266,34.008 217.827,34.008 217.827,23.65 181.585,23.65 
					181.585,34.008 189.148,34.008 178.288,56.21 187.588,60.759 199.711,35.992 				"/>
				<polygon fill="#FFFFFF" points="181.585,72.835 181.585,83.191 217.827,83.191 217.827,72.835 204.886,72.835 204.886,57.309 
					194.526,57.309 194.526,72.835 				"/>
			</g>
			<polygon fill="#FFFFFF" points="579.75,46.782 569.391,46.782 569.391,83.017 579.75,83.017 579.75,70.086 595.281,70.086 
				595.281,59.724 579.75,59.724 			"/>
			<polygon fill="#FFFFFF" points="678.386,59.724 662.85,59.724 662.85,46.782 652.503,46.782 652.503,83.017 662.85,83.017 
				662.85,70.086 678.386,70.086 			"/>
			<path fill="#FFFFFF" d="M540.133,46.782c-10.013,0-18.126,8.113-18.126,18.118c0,10.002,8.113,18.116,18.126,18.116
				c10.002,0,18.116-8.114,18.116-18.116C558.249,54.896,550.135,46.782,540.133,46.782z M540.133,72.668
				c-4.29,0-7.767-3.482-7.767-7.768c0-4.293,3.477-7.77,7.767-7.77s7.765,3.477,7.765,7.77
				C547.897,69.186,544.423,72.668,540.133,72.668z"/>
			<path fill="#FFFFFF" d="M384.01,25.546c-9.999,0-18.11,8.117-18.11,18.125c0,10.013,8.111,18.121,18.11,18.121
				c10.021,0,18.142-8.108,18.142-18.121C402.151,33.663,394.03,25.546,384.01,25.546z M384.01,51.438
				c-4.272,0-7.751-3.481-7.751-7.767c0-4.293,3.479-7.772,7.751-7.772c4.304,0,7.782,3.479,7.782,7.772
				C391.792,47.956,388.313,51.438,384.01,51.438z"/>
			<rect x="234.276" y="72.835" fill="#FFFFFF" width="36.239" height="10.356"/>
			<path fill="#FFFFFF" d="M252.4,25.546c-10.005,0-18.124,8.117-18.124,18.125c0,10.013,8.119,18.121,18.124,18.121
				c10.004,0,18.116-8.108,18.116-18.121C270.516,33.663,262.404,25.546,252.4,25.546z M252.4,51.438
				c-4.291,0-7.77-3.481-7.77-7.767c0-4.293,3.479-7.772,7.77-7.772c4.288,0,7.767,3.479,7.767,7.772
				C260.167,47.956,256.688,51.438,252.4,51.438z"/>
			<polygon fill="#FFFFFF" points="605.513,46.519 605.513,56.873 631.414,56.873 631.414,72.401 605.513,72.401 605.513,108.648 
				641.76,108.648 641.76,98.306 615.87,98.306 615.87,82.764 641.76,82.764 641.76,46.519 			"/>
			<polygon fill="#FFFFFF" points="365.528,93.632 365.528,104.001 391.406,104.001 391.406,114.345 365.528,114.345 
				365.528,145.414 401.766,145.414 401.766,135.056 375.883,135.056 375.883,124.705 401.766,124.705 401.766,93.632 			"/>
			<rect x="338.796" y="46.949" fill="#FFFFFF" width="10.346" height="36.242"/>
			<path fill="#FFFFFF" d="M291.495,65.073c0,10.01,8.122,18.118,18.126,18.118c10.004,0,18.116-8.108,18.116-18.118
				c0-10.011-8.111-18.124-18.116-18.124C299.617,46.949,291.495,55.063,291.495,65.073z M317.383,65.073
				c0,4.29-3.474,7.762-7.762,7.762c-4.291,0-7.767-3.472-7.767-7.762c0-4.283,3.477-7.765,7.767-7.765
				C313.909,57.309,317.383,60.79,317.383,65.073z"/>
			<polygon fill="#FFFFFF" points="312.902,93.632 312.902,104.001 338.796,104.001 338.796,114.345 312.902,114.345 
				312.902,145.414 349.142,145.414 349.142,135.056 323.251,135.056 323.251,124.705 349.142,124.705 349.142,93.632 			"/>
			<polygon fill="#FFFFFF" points="485.279,22.989 479.667,14.277 458.364,28.031 452.462,5.769 442.454,8.415 451.734,43.454 			
				"/>
			<g>
				<rect x="181.585" y="116.854" fill="#FFFFFF" width="36.242" height="10.363"/>
				<path fill="#FFFFFF" d="M199.711,129.619c-10.015,0-18.126,8.121-18.126,18.137c0,10.004,8.111,18.115,18.126,18.115
					c10.005,0,18.116-8.111,18.116-18.115C217.827,137.74,209.716,129.619,199.711,129.619z M199.711,155.511
					c-4.288,0-7.767-3.467-7.767-7.756c0-4.299,3.479-7.768,7.767-7.768c4.28,0,7.759,3.469,7.759,7.768
					C207.47,152.044,203.991,155.511,199.711,155.511z"/>
				<polygon fill="#FFFFFF" points="216.15,109.441 210.529,100.746 201.391,106.594 198.464,95.713 188.449,98.376 
					194.808,121.945 				"/>
			</g>
			<rect x="604.524" y="22.336" fill="#FFFFFF" width="10.356" height="12.942"/>
			<rect x="620.402" y="22.336" fill="#FFFFFF" width="10.356" height="12.942"/>
			<rect x="636.278" y="22.336" fill="#FFFFFF" width="10.359" height="12.942"/>
			<rect x="652.159" y="22.336" fill="#FFFFFF" width="10.359" height="12.942"/>
			<rect x="668.039" y="22.336" fill="#FFFFFF" width="10.347" height="12.942"/>
		</g>
		<g>
			<g>
				<polygon fill="#FFFFFF" points="111.203,136.628 65.258,114.014 61.079,116.429 56.847,114.014 11.025,136.628 15.705,139.162 
					15.705,139.275 11.025,141.076 61.079,165.847 56.847,159.722 61.079,157.197 23.953,139.07 61.079,120.274 98.239,139.105 
					61.079,157.197 65.422,159.722 61.079,165.847 111.203,141.076 106.557,139.275 106.393,139.195 106.393,139.162 				"/>
				<path fill="#FFFFFF" d="M20.167,84.565V39.345l36.709,18.043l4.202-2.175l4.418,2.175l41.13-20.212l4.575-6.623h-8.732
					L61.079,51.128L24.012,32.606l37.067-18.519V9.759V5.79L11.025,30.553v57.853l4.806-1.805L20.167,84.565z M19.922,30.553v0.016
					l-0.008-0.016H19.922z"/>
			</g>
			<polygon fill="#FFFFFF" points="61.079,55.213 56.601,57.388 56.601,107.048 61.079,113.177 			"/>
			<polygon fill="#FFFFFF" points="61.079,55.213 65.549,57.388 65.549,107.048 61.079,113.177 			"/>
			<g>
				<polygon fill="#FFFFFF" points="61.079,10.001 56.601,8.072 56.601,61.711 61.079,67.836 				"/>
				<polygon fill="#FFFFFF" points="61.079,14.215 65.549,16.376 65.549,61.711 61.079,67.836 				"/>
				<polygon fill="#FFFFFF" points="102.179,140.832 106.509,143.361 106.509,89.847 102.179,87.564 				"/>
				<polygon fill="#FFFFFF" points="11.025,84.318 15.832,86.601 15.832,143.484 11.025,141.076 				"/>
				<polygon fill="#FFFFFF" points="20.167,140.96 15.832,143.484 15.832,89.847 20.167,87.564 				"/>
				<polygon fill="#FFFFFF" points="61.123,109.446 56.601,110.052 56.601,163.443 61.079,165.847 				"/>
				<polygon fill="#FFFFFF" points="61.123,109.446 65.549,110.052 65.549,163.568 61.079,165.847 				"/>
				<polygon fill="#FFFFFF" points="111.203,83.232 106.509,89.847 106.509,143.361 111.203,141.076 				"/>
				<polygon fill="#FFFFFF" points="15.705,90.569 61.079,67.596 61.079,63.754 15.705,86.489 				"/>
				<polygon fill="#FFFFFF" points="56.847,61.345 61.079,63.754 15.705,86.601 11.025,84.318 				"/>
				<polygon fill="#FFFFFF" points="106.393,90.569 61.079,67.596 61.079,63.754 106.393,86.489 				"/>
				<polygon fill="#FFFFFF" points="65.258,61.345 61.079,63.754 106.393,86.489 111.203,83.957 				"/>
				<polygon fill="#FFFFFF" points="111.203,88.405 106.557,86.601 61.123,108.965 61.123,113.177 				"/>
				<polygon fill="#FFFFFF" points="102.344,84.442 106.557,86.601 61.123,109.446 61.123,104.521 				"/>
				<polygon fill="#FFFFFF" points="11.025,88.405 15.705,86.601 61.123,109.09 61.123,113.177 				"/>
				<polygon fill="#FFFFFF" points="19.922,84.442 15.705,86.601 61.123,109.446 61.123,104.521 				"/>
				<polygon fill="#FFFFFF" points="102.179,84.565 106.509,86.601 106.509,37.176 102.179,34.89 				"/>
				<polygon fill="#FFFFFF" points="61.079,9.759 61.079,14.215 106.509,37.176 106.509,32.492 				"/>
				<polygon fill="#FFFFFF" points="61.079,5.79 111.203,30.553 106.509,32.492 56.601,8.072 				"/>
				<polygon fill="#FFFFFF" points="111.203,30.553 106.509,32.492 106.509,86.601 111.203,88.405 				"/>
			</g>
		</g>
	</g>
	<g>
		<path fill="#FFFFFF" d="M595.941,153.597c0,0.307-0.063,0.518-0.187,0.631c-0.124,0.115-0.33,0.174-0.616,0.174h-6.37v5.164
			h10.214v2.754h-23.727v-2.754h10.156v-5.164h-6.369c-0.307,0-0.512-0.059-0.617-0.174c-0.105-0.113-0.157-0.324-0.157-0.631
			v-13.369h3.271v4.189h11.16v-4.189h3.242V153.597z M592.699,151.646v-4.504h-11.16v4.504H592.699z"/>
		<path fill="#FFFFFF" d="M624,162.003h-23.727v-2.754H624V162.003z M604.061,140.658h17.157v2.754h-14.661v7.547h14.861v2.725
			h-17.386c-0.307,0-0.513-0.057-0.617-0.172c-0.105-0.115-0.158-0.324-0.158-0.631v-11.418c0-0.287,0.058-0.492,0.173-0.617
			C603.544,140.72,603.754,140.658,604.061,140.658z"/>
		<path fill="#FFFFFF" d="M635.735,141.175c0.287,0,0.492,0.063,0.617,0.186c0.124,0.125,0.187,0.33,0.187,0.617
			c-0.115,3.844-0.852,7.287-2.21,10.328s-3.424,5.596-6.197,7.66l-2.84-1.922c2.582-1.721,4.528-3.762,5.839-6.125
			c1.31-2.361,1.993-5.045,2.051-8.047h-6.513v-2.697H635.735z M639.149,163.955v-12.365h-3.5v-2.898h3.5v-8.779h3.156v24.043
			H639.149z M644.257,165.16v-25.678h3.127v25.678H644.257z"/>
		<path fill="#FFFFFF" d="M658.085,152.708c-1.033,0-1.971-0.162-2.812-0.488c-0.843-0.324-1.569-0.773-2.181-1.348
			c-0.594-0.574-1.053-1.258-1.377-2.053c-0.326-0.793-0.488-1.658-0.488-2.596c0-0.918,0.162-1.77,0.488-2.553
			c0.324-0.785,0.783-1.463,1.377-2.037c0.611-0.574,1.338-1.029,2.181-1.363c0.841-0.334,1.778-0.502,2.812-0.502
			c1.014,0,1.94,0.168,2.782,0.502s1.568,0.789,2.181,1.363c0.593,0.574,1.057,1.252,1.392,2.037
			c0.335,0.783,0.502,1.635,0.502,2.553c0,0.938-0.167,1.803-0.502,2.596c-0.335,0.795-0.799,1.479-1.392,2.053
			c-0.612,0.574-1.339,1.023-2.181,1.348C660.025,152.546,659.099,152.708,658.085,152.708z M658.085,142.523
			c-1.147,0-2.033,0.354-2.654,1.063c-0.622,0.707-0.933,1.596-0.933,2.668c0,1.051,0.311,1.936,0.933,2.654
			c0.621,0.717,1.507,1.074,2.654,1.074s2.032-0.357,2.653-1.074c0.621-0.719,0.933-1.604,0.933-2.654
			c0-1.072-0.312-1.961-0.933-2.668C660.117,142.876,659.232,142.523,658.085,142.523z M655.56,155.205h15.694
			c0.286,0,0.492,0.063,0.616,0.186c0.124,0.125,0.187,0.33,0.187,0.617v8.063c0,0.305-0.063,0.516-0.187,0.631
			s-0.33,0.172-0.616,0.172H655.56c-0.306,0-0.516-0.057-0.631-0.172s-0.172-0.326-0.172-0.631v-8.063
			c0-0.287,0.057-0.492,0.172-0.617C655.044,155.267,655.254,155.205,655.56,155.205z M668.844,162.234v-4.361H657.97v4.361H668.844
			z M672.086,139.482v14.633h-3.214v-14.633H672.086z"/>
	</g>
</g>
</svg>
