<?xml version="1.0" encoding="utf-8"?>
<!-- Generator: Adobe Illustrator 16.0.3, SVG Export Plug-In . SVG Version: 6.00 Build 0)  -->
<!DOCTYPE svg PUBLIC "-//W3C//DTD SVG 1.1//EN" "http://www.w3.org/Graphics/SVG/1.1/DTD/svg11.dtd">
<svg version="1.1" id="레이어_1" xmlns="http://www.w3.org/2000/svg" xmlns:xlink="http://www.w3.org/1999/xlink" x="0px"
	 y="0px" width="160px" height="70px" viewBox="0 0 160 70" enable-background="new 0 0 160 70" xml:space="preserve">
<g>
	<path fill-rule="evenodd" clip-rule="evenodd" fill="#595757" d="M53.438,45.504c-3.472-1.307-6.071-1.861-8.043-2.219
		c-3.308-0.613-4.863-0.678-5.867-2.857c-1.602-3.508,0.957-5.888,1.456-6.661c1.429-2.285,3.286-7.562,3.286-11.805
		c0-5.56-3.738-13.237-11.661-13.237c-8.785,0-11.813,9.063-11.813,13.237c0,4.935,1.608,9.229,3.784,11.943
		c0.408,0.528,2.711,3.015,1.096,6.522c-1.322,2.9-3.544,1.998-9.571,3.619c-1.246,0.316-2.643,0.756-4.237,1.354
		c-4.403,1.152-6.071,10.627-6.654,15.875h54.829C59.526,56.262,57.992,47.379,53.438,45.504z"/>
	<path fill-rule="evenodd" clip-rule="evenodd" fill="none" stroke="#595757" stroke-width="3" stroke-miterlimit="10" d="
		M148.185,45.504c-3.473-1.307-6.072-1.861-8.043-2.219c-3.309-0.613-4.863-0.678-5.867-2.857c-1.602-3.508,0.957-5.888,1.455-6.661
		c1.43-2.285,3.287-7.562,3.287-11.805c0-5.56-3.738-13.237-11.662-13.237c-8.785,0-11.813,9.063-11.813,13.237
		c0,4.935,1.609,9.229,3.783,11.943c0.408,0.528,2.713,3.015,1.096,6.522c-1.322,2.9-3.543,1.998-9.57,3.619
		c-1.246,0.316-2.643,0.756-4.236,1.354c-4.404,1.152-6.072,10.627-6.654,15.875h54.828
		C154.272,56.262,152.739,47.379,148.185,45.504z"/>
	<g>
		<path fill="#595757" d="M90.424,25.418v6.365H69.577v-6.365H90.424z M90.424,38.215v6.365H69.577v-6.365H90.424z"/>
	</g>
</g>
</svg>
