<?xml version="1.0" encoding="utf-8"?>
<!-- Generator: Adobe Illustrator 16.0.3, SVG Export Plug-In . SVG Version: 6.00 Build 0)  -->
<!DOCTYPE svg PUBLIC "-//W3C//DTD SVG 1.1//EN" "http://www.w3.org/Graphics/SVG/1.1/DTD/svg11.dtd">
<svg version="1.1" id="레이어_1" xmlns="http://www.w3.org/2000/svg" xmlns:xlink="http://www.w3.org/1999/xlink" x="0px"
	 y="0px" width="60px" height="70px" viewBox="0 0 60 70" enable-background="new 0 0 60 70" xml:space="preserve">
<g>
	<path fill="#595757" d="M42.775,15.977l1.372-3.38c0.224-0.554-0.047-1.184-0.598-1.406l-4.371-1.771
		c-0.551-0.224-1.18,0.043-1.404,0.596l-1.385,3.42c-1.535-0.386-3.122-0.631-4.75-0.732v-1.116
		c0.854,0.073,1.693,0.193,2.511,0.372l1.36-6.362c-1.764-0.385-3.592-0.586-5.465-0.593V5c-0.013,0-0.031,0.002-0.047,0.002
		C29.983,5.002,29.967,5,29.954,5v0.002c-1.874,0.007-3.705,0.208-5.465,0.593l1.362,6.362c0.816-0.179,1.657-0.299,2.505-0.372
		v1.116c-1.624,0.102-3.211,0.346-4.744,0.732l-1.386-3.42c-0.223-0.553-0.85-0.819-1.407-0.596l-4.369,1.771
		c-0.555,0.223-0.818,0.852-0.598,1.406l1.373,3.38c-7.995,4.482-13.4,13.031-13.4,22.847C3.824,53.279,15.545,65,29.998,65
		c14.461,0,26.178-11.721,26.178-26.177C56.176,29.007,50.772,20.458,42.775,15.977z M29.998,58.457
		c-10.839,0-19.632-8.793-19.632-19.634c0-10.845,8.793-19.635,19.632-19.635c10.845,0,19.638,8.79,19.638,19.635
		C49.636,49.664,40.843,58.457,29.998,58.457z"/>
	<path fill="#595757" d="M43.222,31.19c-2.637-4.566-7.57-7.638-13.224-7.638v15.271l-13.222,7.634
		c2.642,4.563,7.573,7.635,13.222,7.635l0,0c8.436,0,15.271-6.835,15.271-15.269C45.269,36.039,44.521,33.434,43.222,31.19z"/>
</g>
</svg>
