<?xml version="1.0" encoding="utf-8"?>
<!-- Generator: Adobe Illustrator 16.0.3, SVG Export Plug-In . SVG Version: 6.00 Build 0)  -->
<!DOCTYPE svg PUBLIC "-//W3C//DTD SVG 1.1//EN" "http://www.w3.org/Graphics/SVG/1.1/DTD/svg11.dtd">
<svg version="1.1" id="레이어_1" xmlns="http://www.w3.org/2000/svg" xmlns:xlink="http://www.w3.org/1999/xlink" x="0px"
	 y="0px" width="120px" height="70px" viewBox="0 0 120 70" enable-background="new 0 0 120 70" xml:space="preserve">
<g>
	<path fill-rule="evenodd" clip-rule="evenodd" fill="#595757" d="M38.429,44.84c1.502-0.565,2.938-1.021,4.373-1.408
		c2.047-0.549,3.663-0.812,4.955-1.033c0.537-0.082,0.95-0.158,1.283-0.221c-1.495-0.403-2.765-0.67-3.851-0.866
		c-3.325-0.604-4.88-0.663-5.877-2.855c-1.616-3.491,0.967-5.891,1.457-6.664c1.421-2.278,3.278-7.558,3.278-11.797
		c0-5.563-2.915-13.242-11.669-13.242c-8.565,0-11.798,9.063-11.798,13.242c0,4.941,1.609,9.229,3.776,11.942
		c0.416,0.519,2.704,3.028,1.104,6.519c-1.33,2.896-3.543,2.01-9.577,3.615c-1.246,0.327-2.652,0.759-4.23,1.356
		C7.251,44.578,5.588,54.063,5,59.297h25.461c0.098-0.58,0.204-1.178,0.324-1.764c0.311-1.533,0.695-3.108,1.179-4.582
		c0.641-1.972,1.412-3.602,2.28-4.872C35.414,46.387,36.827,45.299,38.429,44.84z"/>
	<path fill-rule="evenodd" clip-rule="evenodd" fill="#595757" d="M108.408,43.531c-3.477-1.309-6.066-1.857-8.043-2.22
		c-3.309-0.604-4.867-0.663-5.871-2.855c-1.607-3.491,0.967-5.891,1.451-6.664c1.426-2.278,3.285-7.558,3.285-11.797
		c0-5.563-4.131-13.242-11.662-13.242c-9.992,0-11.805,9.063-11.805,13.242c0,4.941,1.615,9.229,3.783,11.942
		c0.418,0.519,2.695,3.028,1.111,6.519c-1.33,2.896-3.564,2.01-9.586,3.615c-0.121,0.027-0.227,0.065-0.355,0.086
		c0.402,0.101,0.93,0.187,1.646,0.314c0.287,0.048,0.584,0.1,0.898,0.169c2.178,0.395,4.896,0.977,8.498,2.342L81.798,45
		l0.047,0.006c1.547,0.656,2.922,1.826,4.07,3.525c0.859,1.302,1.623,2.918,2.256,4.807c0.447,1.381,0.803,2.807,1.088,4.195
		c0.115,0.593,0.227,1.184,0.326,1.764H115C114.494,54.305,112.955,45.406,108.408,43.531z"/>
	<path fill-rule="evenodd" clip-rule="evenodd" fill="#595757" d="M80.814,47.475c-3.471-1.305-6.07-1.861-8.043-2.217
		c-3.307-0.614-4.863-0.68-5.867-2.859c-1.602-3.508,0.957-5.886,1.457-6.66c1.428-2.285,3.285-7.562,3.285-11.805
		c0-5.558-3.738-13.237-11.661-13.237c-8.785,0-11.813,9.063-11.813,13.237c0,4.935,1.609,9.229,3.784,11.943
		c0.408,0.528,2.712,3.014,1.096,6.521c-1.322,2.9-3.544,2-9.57,3.619c-1.246,0.318-2.643,0.756-4.237,1.354
		c-4.403,1.152-6.071,10.627-6.654,15.876h54.83C86.904,58.233,85.369,49.35,80.814,47.475z"/>
</g>
</svg>
